<svg width="12" height="12" viewBox="0 0 12 12" fill="none" xmlns="http://www.w3.org/2000/svg">
<path d="M6.99984 2.33341L9.6665 5.00008M0.666504 11.3335H3.33317L10.3332 4.33345C10.5083 4.15836 10.6472 3.95049 10.7419 3.72171C10.8367 3.49294 10.8855 3.24774 10.8855 3.00012C10.8855 2.7525 10.8367 2.5073 10.7419 2.27853C10.6472 2.04975 10.5083 1.84188 10.3332 1.66679C10.1581 1.49169 9.9502 1.3528 9.72143 1.25804C9.49266 1.16328 9.24746 1.1145 8.99984 1.1145C8.75221 1.1145 8.50702 1.16328 8.27824 1.25804C8.04947 1.3528 7.8416 1.49169 7.6665 1.66679L0.666504 8.66679V11.3335Z" stroke="currentColor" stroke-linecap="round" stroke-linejoin="round"/>
</svg>
