<?xml version="1.0" encoding="utf-8"?>
<svg version="1.1" xmlns="http://www.w3.org/2000/svg" xmlns:xlink="http://www.w3.org/1999/xlink">
	<defs>
		<symbol id="youtube" viewBox="0 0 60 60">
			<path
				d="M 0,0 60,0 60,60 0,60 Z M47.61,28.27H12.39C6.79,28.27,2.25,32.4,2.25,38v9.71A10.11,10.11,0,0,0,12.39,57.75H47.61A10.11,10.11,0,0,0,57.75,47.67V38A9.85,9.85,0,0,0,47.61,28.27ZM19.3,36.16H15.9v15.7H12.62V36.16H9.22V33.49H19.3ZM28,52.53H25.08V51A6.21,6.21,0,0,1,23.4,52.3a3.75,3.75,0,0,1-1.69.43,1.85,1.85,0,0,1-1.52-.61,2.73,2.73,0,0,1-.52-1.81V39h2.92V49.37a1.09,1.09,0,0,0,.18.7.72.72,0,0,0,.6.21,1.73,1.73,0,0,0,.81-.28,3.9,3.9,0,0,0,.9-.73V39H28V52.53Zm12.2-3.17a3.17,3.17,0,0,1-.69,2.2,2.76,2.76,0,0,1-2,1.14,8.72,8.72,0,0,1-2.34-.29A3.77,3.77,0,0,1,34,51.49v1H31V33.79h3v6.29a4.42,4.42,0,0,1,1.24-.94,7.37,7.37,0,0,1,2.17-.33c.92,0,1.62-.08,2.11.5a3.8,3.8,0,0,1,.73,2.53v7.52Zm10.59-3.5H45.22v2.55a2.76,2.76,0,0,0,.28,1.48,1.13,1.13,0,0,0,1,.42,1.25,1.25,0,0,0,1-.36,2.8,2.8,0,0,0,.28-1.54v-.62h3v.7a4.14,4.14,0,0,1-1.1,3.14,4.52,4.52,0,0,1-3.27,1,3.87,3.87,0,0,1-4.2-4.19V42.4a3.67,3.67,0,0,1,1.24-2.87,4.57,4.57,0,0,1,3.18-1.11,4.26,4.26,0,0,1,3.08,1,3.87,3.87,0,0,1,1.07,2.95v3.46Zm-4.27-5.07a1.2,1.2,0,0,0-1,.37,1.93,1.93,0,0,0-.3,1.22v1.37h2.57V42.38a1.93,1.93,0,0,0-.3-1.22A1.18,1.18,0,0,0,46.52,40.79ZM35.17,41a1.5,1.5,0,0,0-.62.13,2.14,2.14,0,0,0-.6.41V50a2.45,2.45,0,0,0,.69.49,1.82,1.82,0,0,0,.7.14A3.89,3.89,0,0,0,37,50.29a1.44,1.44,0,0,0,.25-.93v-7a1.5,1.5,0,0,0-.31-1A3.83,3.83,0,0,0,35.17,41ZM38.82,24.9a4,4,0,0,0,1.84-.5,6.68,6.68,0,0,0,1.82-1.46v1.73h3.16V9.05H42.48V20.91a4.29,4.29,0,0,1-1,.84,1.79,1.79,0,0,1-.88.33.78.78,0,0,1-.64-.25,1.32,1.32,0,0,1-.21-.8v-12H36.62V22.11a3.27,3.27,0,0,0,.55,2.08A2,2,0,0,0,38.82,24.9Zm-9.3.17a4.81,4.81,0,0,0,3.39-1.14,4.13,4.13,0,0,0,1.22-3.15V12.71a3.77,3.77,0,0,0-1.25-2.92,4.65,4.65,0,0,0-3.22-1.13,5.19,5.19,0,0,0-3.43,1.07A3.59,3.59,0,0,0,25,12.62v8.1a4.16,4.16,0,0,0,1.24,3.17A4.66,4.66,0,0,0,29.52,25.07ZM28.21,12.5a1,1,0,0,1,.36-.82,1.39,1.39,0,0,1,.94-.32,1.58,1.58,0,0,1,1,.32,1,1,0,0,1,.38.82V21a1.31,1.31,0,0,1-.38,1,1.41,1.41,0,0,1-1,.36,1.23,1.23,0,0,1-1-.35,1.38,1.38,0,0,1-.34-1V12.5ZM17,24.67h3.56v-10L24.7,2.25H21.08l-2.2,8.46h-.22L16.35,2.25H12.76L17,15v9.63Z"
				fill-rule="evenodd" />
		</symbol>

		<symbol id="arrow-down" viewBox="0 0 24 24">
			<path d="M12 5V19M12 19L16 15M12 19L8 15" stroke="#17193E" stroke-width="1.5"
				stroke-linecap="round" stroke-linejoin="round" />
		</symbol>

		<symbol id="arrow-next" viewBox="0 0 24 24">
			<path
				d="M15 14L19 10M19 10L15 6M19 10H8C6.93913 10 5.92172 10.4214 5.17157 11.1716C4.42143 11.9217 4 12.9391 4 14C4 15.0609 4.42143 16.0783 5.17157 16.8284C5.92172 17.5786 6.93913 18 8 18H9"
				stroke="#17193E" stroke-width="1.5" stroke-linecap="round" stroke-linejoin="round" />
		</symbol>

		<symbol id="arrow-top" viewBox="0 0 24 24">
			<path d="M12 5V19M12 5L16 9M12 5L8 9" stroke="#17193E" stroke-width="1.5"
				stroke-linecap="round" stroke-linejoin="round" />
		</symbol>

		<symbol id="award" viewBox="0 0 24 24">
			<path
				d="M13 17.5V22L15 20.5L17 22V17.5M10 19H5C4.46957 19 3.96086 18.7893 3.58579 18.4142C3.21071 18.0391 3 17.5304 3 17V7C3 5.9 3.9 5 5 5H19C19.5304 5 20.0391 5.21071 20.4142 5.58579C20.7893 5.96086 21 6.46957 21 7V17C20.9996 17.3507 20.9071 17.6952 20.7315 17.9988C20.556 18.3025 20.3037 18.5546 20 18.73M6 9H18M6 12H9M6 15H8M12 15C12 15.7956 12.3161 16.5587 12.8787 17.1213C13.4413 17.6839 14.2044 18 15 18C15.7956 18 16.5587 17.6839 17.1213 17.1213C17.6839 16.5587 18 15.7956 18 15C18 14.2044 17.6839 13.4413 17.1213 12.8787C16.5587 12.3161 15.7956 12 15 12C14.2044 12 13.4413 12.3161 12.8787 12.8787C12.3161 13.4413 12 14.2044 12 15Z"
				stroke="#17193E" stroke-width="1.5" stroke-linecap="round" stroke-linejoin="round" />
		</symbol>

		<symbol id="calendar" viewBox="0 0 24 24">
			<path
				d="M16 3V7M8 3V7M4 11H20M7 14H7.013M10.01 14H10.015M13.01 14H13.015M16.015 14H16.02M13.015 17H13.02M7.01001 17H7.01501M10.01 17H10.015M4 7C4 6.46957 4.21071 5.96086 4.58579 5.58579C4.96086 5.21071 5.46957 5 6 5H18C18.5304 5 19.0391 5.21071 19.4142 5.58579C19.7893 5.96086 20 6.46957 20 7V19C20 19.5304 19.7893 20.0391 19.4142 20.4142C19.0391 20.7893 18.5304 21 18 21H6C5.46957 21 4.96086 20.7893 4.58579 20.4142C4.21071 20.0391 4 19.5304 4 19V7Z"
				stroke="#17193E" stroke-width="1.5" stroke-linecap="round" stroke-linejoin="round" />
		</symbol>

		<symbol id="check" viewBox="0 0 24 24">
			<path d="M5 12L10 17L20 7" stroke="black" stroke-width="1.5" stroke-linecap="round"
				stroke-linejoin="round" />
		</symbol>

		<symbol id="dislike" viewBox="0 0 24 24">
			<path
				d="M7 12.9999V4.99993C7 4.73472 6.89464 4.48036 6.70711 4.29283C6.51957 4.10529 6.26522 3.99993 6 3.99993H4C3.73478 3.99993 3.48043 4.10529 3.29289 4.29283C3.10536 4.48036 3 4.73472 3 4.99993V11.9999C3 12.2651 3.10536 12.5195 3.29289 12.707C3.48043 12.8946 3.73478 12.9999 4 12.9999H7ZM7 12.9999C8.06087 12.9999 9.07828 13.4214 9.82843 14.1715C10.5786 14.9217 11 15.9391 11 16.9999V17.9999C11 18.5304 11.2107 19.0391 11.5858 19.4141C11.9609 19.7892 12.4696 19.9999 13 19.9999C13.5304 19.9999 14.0391 19.7892 14.4142 19.4141C14.7893 19.0391 15 18.5304 15 17.9999V12.9999H18C18.5304 12.9999 19.0391 12.7892 19.4142 12.4141C19.7893 12.0391 20 11.5304 20 10.9999L19 5.99993C18.8562 5.38646 18.5834 4.85969 18.2227 4.49897C17.8619 4.13825 17.4328 3.96311 17 3.99993H10C9.20435 3.99993 8.44129 4.316 7.87868 4.87861C7.31607 5.44122 7 6.20428 7 6.99993"
				stroke="#17193E" stroke-width="1.5" stroke-linecap="round" stroke-linejoin="round" />
		</symbol>

		<symbol id="dnd" viewBox="0 0 24 24">
			<path
				d="M19 11V9C19 8.46957 18.7893 7.96086 18.4142 7.58579C18.0391 7.21071 17.5304 7 17 7H9C8.46957 7 7.96086 7.21071 7.58579 7.58579C7.21071 7.96086 7 8.46957 7 9V17C7 17.5304 7.21071 18.0391 7.58579 18.4142C7.96086 18.7893 8.46957 19 9 19H11M3 3V3.01M7 3V3.01M11 3V3.01M15 3V3.01M3 7V7.01M3 11V11.01M3 15V15.01M13 13L22 16L18 18L16 22L13 13Z"
				stroke="#17193E" stroke-width="1.5" stroke-linecap="round" stroke-linejoin="round" />
		</symbol>

		<symbol id="download-file" viewBox="0 0 24 24">
			<path
				d="M14 3V7C14 7.26522 14.1054 7.51957 14.2929 7.70711C14.4804 7.89464 14.7348 8 15 8H19M14 3H7C6.46957 3 5.96086 3.21071 5.58579 3.58579C5.21071 3.96086 5 4.46957 5 5V19C5 19.5304 5.21071 20.0391 5.58579 20.4142C5.96086 20.7893 6.46957 21 7 21H17C17.5304 21 18.0391 20.7893 18.4142 20.4142C18.7893 20.0391 19 19.5304 19 19V8M14 3L19 8M12 17V11M12 17L9.5 14.5M12 17L14.5 14.5"
				stroke="#17193E" stroke-width="1.5" stroke-linecap="round" stroke-linejoin="round" />
		</symbol>

		<symbol id="exit" viewBox="0 0 24 24">
			<path
				d="M14 8V6C14 5.46957 13.7893 4.96086 13.4142 4.58579C13.0391 4.21071 12.5304 4 12 4H5C4.46957 4 3.96086 4.21071 3.58579 4.58579C3.21071 4.96086 3 5.46957 3 6V18C3 18.5304 3.21071 19.0391 3.58579 19.4142C3.96086 19.7893 4.46957 20 5 20H12C12.5304 20 13.0391 19.7893 13.4142 19.4142C13.7893 19.0391 14 18.5304 14 18V16M9 12H21M21 12L18 9M21 12L18 15"
				stroke="#17193E" stroke-width="1.5" stroke-linecap="round" stroke-linejoin="round" />
		</symbol>

		<symbol id="eye" viewBox="0 0 24 24">
			<path
				d="M10.5851 10.5869C10.21 10.9621 9.99942 11.4708 9.99951 12.0013C9.99961 12.5317 10.2104 13.0404 10.5856 13.4154C10.9607 13.7904 11.4695 14.0011 11.9999 14.001C12.5304 14.0009 13.039 13.7901 13.4141 13.4149M16.681 16.673C15.2782 17.5507 13.6547 18.0109 12 18C8.4 18 5.4 16 3 12C4.272 9.88003 5.712 8.32203 7.32 7.32603M10.18 6.18003C10.779 6.05876 11.3888 5.99845 12 6.00003C15.6 6.00003 18.6 8.00003 21 12C20.334 13.11 19.621 14.067 18.862 14.87M3 3L21 21"
				stroke="black" stroke-width="1.5" stroke-linecap="round" stroke-linejoin="round" />
		</symbol>

		<symbol id="file" viewBox="0 0 24 24">
			<path
				d="M9 7H15M9 11H15M9 15H13M5 5C5 4.46957 5.21071 3.96086 5.58579 3.58579C5.96086 3.21071 6.46957 3 7 3H17C17.5304 3 18.0391 3.21071 18.4142 3.58579C18.7893 3.96086 19 4.46957 19 5V19C19 19.5304 18.7893 20.0391 18.4142 20.4142C18.0391 20.7893 17.5304 21 17 21H7C6.46957 21 5.96086 20.7893 5.58579 20.4142C5.21071 20.0391 5 19.5304 5 19V5Z"
				stroke="#17193E" stroke-width="1.5" stroke-linecap="round" stroke-linejoin="round" />
		</symbol>

		<symbol id="filters" viewBox="0 0 24 24">
			<path
				d="M12 6C12 6.53043 12.2107 7.03914 12.5858 7.41421C12.9609 7.78929 13.4696 8 14 8C14.5304 8 15.0391 7.78929 15.4142 7.41421C15.7893 7.03914 16 6.53043 16 6M12 6C12 5.46957 12.2107 4.96086 12.5858 4.58579C12.9609 4.21071 13.4696 4 14 4C14.5304 4 15.0391 4.21071 15.4142 4.58579C15.7893 4.96086 16 5.46957 16 6M12 6H4M16 6H20M6 12C6 12.5304 6.21071 13.0391 6.58579 13.4142C6.96086 13.7893 7.46957 14 8 14C8.53043 14 9.03914 13.7893 9.41421 13.4142C9.78929 13.0391 10 12.5304 10 12M6 12C6 11.4696 6.21071 10.9609 6.58579 10.5858C6.96086 10.2107 7.46957 10 8 10C8.53043 10 9.03914 10.2107 9.41421 10.5858C9.78929 10.9609 10 11.4696 10 12M6 12H4M10 12H20M15 18C15 18.5304 15.2107 19.0391 15.5858 19.4142C15.9609 19.7893 16.4696 20 17 20C17.5304 20 18.0391 19.7893 18.4142 19.4142C18.7893 19.0391 19 18.5304 19 18M15 18C15 17.4696 15.2107 16.9609 15.5858 16.5858C15.9609 16.2107 16.4696 16 17 16C17.5304 16 18.0391 16.2107 18.4142 16.5858C18.7893 16.9609 19 17.4696 19 18M15 18H4M19 18H20"
				stroke="#17193E" stroke-width="1.5" stroke-linecap="round" stroke-linejoin="round" />
		</symbol>

		<symbol id="heart" viewBox="0 0 24 24">
			<path
				d="M19.5003 12.5717L12.0003 19.9997L4.5003 12.5717C4.00561 12.0903 3.61594 11.5117 3.35585 10.8723C3.09575 10.2329 2.97086 9.54664 2.98904 8.85662C3.00721 8.1666 3.16806 7.48782 3.46146 6.86303C3.75485 6.23823 4.17444 5.68094 4.69379 5.22627C5.21314 4.77159 5.82101 4.42938 6.47911 4.22117C7.13722 4.01296 7.83131 3.94327 8.51767 4.01649C9.20403 4.08971 9.8678 4.30425 10.4672 4.64659C11.0666 4.98894 11.5885 5.45169 12.0003 6.00569C12.4138 5.45571 12.9364 4.99701 13.5354 4.65829C14.1344 4.31958 14.7968 4.10814 15.4812 4.03721C16.1657 3.96628 16.8574 4.03739 17.5131 4.24608C18.1688 4.45477 18.7743 4.79656 19.2919 5.25005C19.8094 5.70354 20.2277 6.25897 20.5207 6.88158C20.8137 7.50419 20.975 8.18057 20.9946 8.8684C21.0142 9.55622 20.8916 10.2407 20.6344 10.8789C20.3773 11.5172 19.9912 12.0955 19.5003 12.5777"
				stroke="#17193E" stroke-width="1.5" stroke-linecap="round" stroke-linejoin="round" />
		</symbol>

		<symbol id="home" viewBox="0 0 24 24">
			<path
				d="M15 22V20M18 22V18M21 22V16M19 12.494V12H21L12 3L3 12H5V19C5 19.5304 5.21071 20.0391 5.58579 20.4142C5.96086 20.7893 6.46957 21 7 21H11M9 21V15C9 14.4696 9.21071 13.9609 9.58579 13.5858C9.96086 13.2107 10.4696 13 11 13H13C13.5304 13 14.0391 13.2107 14.4142 13.5858C14.7893 13.9609 15 14.4696 15 15V15.5"
				stroke="#17193E" stroke-width="1.5" stroke-linecap="round" stroke-linejoin="round" />
		</symbol>

		<symbol id="image" viewBox="0 0 24 24">
			<path
				d="M15 8H15.01M3 16L8 11C8.928 10.107 10.072 10.107 11 11L16 16M14 14L15 13C15.928 12.107 17.072 12.107 18 13L21 16M3 6C3 5.20435 3.31607 4.44129 3.87868 3.87868C4.44129 3.31607 5.20435 3 6 3H18C18.7956 3 19.5587 3.31607 20.1213 3.87868C20.6839 4.44129 21 5.20435 21 6V18C21 18.7956 20.6839 19.5587 20.1213 20.1213C19.5587 20.6839 18.7956 21 18 21H6C5.20435 21 4.44129 20.6839 3.87868 20.1213C3.31607 19.5587 3 18.7956 3 18V6Z"
				stroke="#17193E" stroke-width="1.5" stroke-linecap="round" stroke-linejoin="round" />
		</symbol>

		<symbol id="internet" viewBox="0 0 24 24">
			<path
				d="M3.6001 9H20.4001M3.6001 15H20.4001M11.4999 3C9.81525 5.69961 8.92212 8.81787 8.92212 12C8.92212 15.1821 9.81525 18.3004 11.4999 21M12.5 3C14.1847 5.69961 15.0778 8.81787 15.0778 12C15.0778 15.1821 14.1847 18.3004 12.5 21M3 12C3 13.1819 3.23279 14.3522 3.68508 15.4442C4.13738 16.5361 4.80031 17.5282 5.63604 18.364C6.47177 19.1997 7.46392 19.8626 8.55585 20.3149C9.64778 20.7672 10.8181 21 12 21C13.1819 21 14.3522 20.7672 15.4442 20.3149C16.5361 19.8626 17.5282 19.1997 18.364 18.364C19.1997 17.5282 19.8626 16.5361 20.3149 15.4442C20.7672 14.3522 21 13.1819 21 12C21 9.61305 20.0518 7.32387 18.364 5.63604C16.6761 3.94821 14.3869 3 12 3C9.61305 3 7.32387 3.94821 5.63604 5.63604C3.94821 7.32387 3 9.61305 3 12Z"
				stroke="#17193E" stroke-width="1.5" stroke-linecap="round" stroke-linejoin="round" />
		</symbol>

		<symbol id="key" viewBox="0 0 24 24">
			<path
				d="M15 9H15.01M16.555 3.84281L20.157 7.44481C20.4242 7.71197 20.6362 8.02914 20.7808 8.37823C20.9254 8.72731 20.9998 9.10146 20.9998 9.47931C20.9998 9.85716 20.9254 10.2313 20.7808 10.5804C20.6362 10.9295 20.4242 11.2466 20.157 11.5138L17.514 14.1568C17.2468 14.424 16.9297 14.636 16.5806 14.7806C16.2315 14.9252 15.8573 14.9996 15.4795 14.9996C15.1017 14.9996 14.7275 14.9252 14.3784 14.7806C14.0293 14.636 13.7122 14.424 13.445 14.1568L13.144 13.8558L6.586 20.4138C6.25372 20.746 5.81507 20.9507 5.347 20.9918L5.172 20.9998H4C3.75507 20.9998 3.51866 20.9099 3.33563 20.7471C3.15259 20.5843 3.03566 20.3601 3.007 20.1168L3 19.9998V18.8278C3.00011 18.3583 3.16543 17.9037 3.467 17.5438L3.586 17.4138L4 16.9998H6V14.9998H8V12.9998L10.144 10.8558L9.843 10.5548C9.5758 10.2876 9.36384 9.97047 9.21923 9.62139C9.07462 9.27231 9.00019 8.89816 9.00019 8.52031C9.00019 8.14246 9.07462 7.76831 9.21923 7.41923C9.36384 7.07014 9.5758 6.75297 9.843 6.48581L12.486 3.84281C12.7532 3.57561 13.0703 3.36365 13.4194 3.21904C13.7685 3.07443 14.1427 3 14.5205 3C14.8983 3 15.2725 3.07443 15.6216 3.21904C15.9707 3.36365 16.2878 3.57561 16.555 3.84281Z"
				stroke="#17193E" stroke-width="1.5" stroke-linecap="round" stroke-linejoin="round" />
		</symbol>

		<symbol id="like" viewBox="0 0 24 24">
			<path
				d="M7 11V19C7 19.2652 6.89464 19.5196 6.70711 19.7071C6.51957 19.8946 6.26522 20 6 20H4C3.73478 20 3.48043 19.8946 3.29289 19.7071C3.10536 19.5196 3 19.2652 3 19V12C3 11.7348 3.10536 11.4804 3.29289 11.2929C3.48043 11.1054 3.73478 11 4 11H7ZM7 11C8.06087 11 9.07828 10.5786 9.82843 9.82843C10.5786 9.07828 11 8.06087 11 7V6C11 5.46957 11.2107 4.96086 11.5858 4.58579C11.9609 4.21071 12.4696 4 13 4C13.5304 4 14.0391 4.21071 14.4142 4.58579C14.7893 4.96086 15 5.46957 15 6V11H18C18.5304 11 19.0391 11.2107 19.4142 11.5858C19.7893 11.9609 20 12.4696 20 13L19 18C18.8562 18.6135 18.5834 19.1402 18.2227 19.501C17.8619 19.8617 17.4328 20.0368 17 20H10C9.20435 20 8.44129 19.6839 7.87868 19.1213C7.31607 18.5587 7 17.7956 7 17"
				stroke="#17193E" stroke-width="1.5" stroke-linecap="round" stroke-linejoin="round" />
		</symbol>

		<symbol id="load-file" viewBox="0 0 24 24">
			<path
				d="M4 17V19C4 19.5304 4.21071 20.0391 4.58579 20.4142C4.96086 20.7893 5.46957 21 6 21H18C18.5304 21 19.0391 20.7893 19.4142 20.4142C19.7893 20.0391 20 19.5304 20 19V17M7 9L12 4M12 4L17 9M12 4V16"
				stroke="black" stroke-width="1.5" stroke-linecap="round" stroke-linejoin="round" />
		</symbol>

		<symbol id="markers" viewBox="0 0 24 24">
			<path
				d="M8 7V7.01M16 15V15.01M10.828 9.82788C11.3875 9.26852 11.7686 8.55579 11.9231 7.77983C12.0775 7.00387 11.9984 6.19954 11.6956 5.46857C11.3929 4.73759 10.8802 4.11281 10.2224 3.67323C9.56459 3.23365 8.79118 2.99902 8 2.99902C7.20883 2.99902 6.43542 3.23365 5.7776 3.67323C5.11977 4.11281 4.60708 4.73759 4.30437 5.46857C4.00165 6.19954 3.92251 7.00387 4.07695 7.77983C4.23139 8.55579 4.61247 9.26852 5.172 9.82788L8 12.6569L10.828 9.82788ZM18.828 17.8279C19.3875 17.2685 19.7686 16.5558 19.9231 15.7798C20.0775 15.0039 19.9983 14.1995 19.6956 13.4686C19.3929 12.7376 18.8802 12.1128 18.2224 11.6732C17.5646 11.2337 16.7912 10.999 16 10.999C15.2088 10.999 14.4354 11.2337 13.7776 11.6732C13.1198 12.1128 12.6071 12.7376 12.3044 13.4686C12.0017 14.1995 11.9225 15.0039 12.0769 15.7798C12.2314 16.5558 12.6125 17.2685 13.172 17.8279L16 20.6569L18.828 17.8279Z"
				stroke="black" stroke-width="1.5" stroke-linecap="round" stroke-linejoin="round" />
		</symbol>

		<symbol id="menu" viewBox="0 0 24 24">
			<path
				d="M4 5C4 4.73478 4.10536 4.48043 4.29289 4.29289C4.48043 4.10536 4.73478 4 5 4H9C9.26522 4 9.51957 4.10536 9.70711 4.29289C9.89464 4.48043 10 4.73478 10 5V9C10 9.26522 9.89464 9.51957 9.70711 9.70711C9.51957 9.89464 9.26522 10 9 10H5C4.73478 10 4.48043 9.89464 4.29289 9.70711C4.10536 9.51957 4 9.26522 4 9V5Z"
				stroke="#17193E" stroke-width="1.5" stroke-linecap="round" stroke-linejoin="round" />
			<path
				d="M14 5C14 4.73478 14.1054 4.48043 14.2929 4.29289C14.4804 4.10536 14.7348 4 15 4H19C19.2652 4 19.5196 4.10536 19.7071 4.29289C19.8946 4.48043 20 4.73478 20 5V9C20 9.26522 19.8946 9.51957 19.7071 9.70711C19.5196 9.89464 19.2652 10 19 10H15C14.7348 10 14.4804 9.89464 14.2929 9.70711C14.1054 9.51957 14 9.26522 14 9V5Z"
				stroke="#17193E" stroke-width="1.5" stroke-linecap="round" stroke-linejoin="round" />
			<path
				d="M4 15C4 14.7348 4.10536 14.4804 4.29289 14.2929C4.48043 14.1054 4.73478 14 5 14H9C9.26522 14 9.51957 14.1054 9.70711 14.2929C9.89464 14.4804 10 14.7348 10 15V19C10 19.2652 9.89464 19.5196 9.70711 19.7071C9.51957 19.8946 9.26522 20 9 20H5C4.73478 20 4.48043 19.8946 4.29289 19.7071C4.10536 19.5196 4 19.2652 4 19V15Z"
				stroke="#17193E" stroke-width="1.5" stroke-linecap="round" stroke-linejoin="round" />
			<path
				d="M14 15C14 14.7348 14.1054 14.4804 14.2929 14.2929C14.4804 14.1054 14.7348 14 15 14H19C19.2652 14 19.5196 14.1054 19.7071 14.2929C19.8946 14.4804 20 14.7348 20 15V19C20 19.2652 19.8946 19.5196 19.7071 19.7071C19.5196 19.8946 19.2652 20 19 20H15C14.7348 20 14.4804 19.8946 14.2929 19.7071C14.1054 19.5196 14 19.2652 14 19V15Z"
				stroke="#17193E" stroke-width="1.5" stroke-linecap="round" stroke-linejoin="round" />
		</symbol>

		<symbol id="message" viewBox="0 0 24 24">
			<path
				d="M3 19.9996L4.3 16.0996C3.17644 14.4379 2.76999 12.47 3.15622 10.5619C3.54244 8.65378 4.69506 6.93526 6.39977 5.72586C8.10447 4.51647 10.2453 3.89849 12.4241 3.98683C14.6029 4.07517 16.6715 4.86382 18.2453 6.20615C19.819 7.54848 20.7909 9.35313 20.9801 11.2846C21.1693 13.216 20.563 15.1428 19.2739 16.7067C17.9848 18.2706 16.1007 19.3652 13.9718 19.7869C11.8429 20.2087 9.6142 19.9289 7.7 18.9996L3 19.9996Z"
				stroke="black" stroke-width="1.5" stroke-linecap="round" stroke-linejoin="round" />
		</symbol>

		<symbol id="pencil" viewBox="0 0 24 24">
			<path
				d="M13.5 6.50024L17.5 10.5002M4 20.0003H8L18.5 9.5003C18.7626 9.23766 18.971 8.92585 19.1131 8.58269C19.2553 8.23953 19.3284 7.87174 19.3284 7.5003C19.3284 7.12887 19.2553 6.76107 19.1131 6.41791C18.971 6.07475 18.7626 5.76295 18.5 5.5003C18.2374 5.23766 17.9256 5.02932 17.5824 4.88718C17.2392 4.74503 16.8714 4.67187 16.5 4.67188C16.1286 4.67188 15.7608 4.74503 15.4176 4.88718C15.0744 5.02932 14.7626 5.23766 14.5 5.5003L4 16.0003V20.0003Z"
				stroke="#17193E" stroke-width="1.5" stroke-linecap="round" stroke-linejoin="round" />
		</symbol>

		<symbol id="person" viewBox="0 0 24 24">
			<path
				d="M6 21V19C6 17.9391 6.42143 16.9217 7.17157 16.1716C7.92172 15.4214 8.93913 15 10 15H14C15.0609 15 16.0783 15.4214 16.8284 16.1716C17.5786 16.9217 18 17.9391 18 19V21M8 7C8 8.06087 8.42143 9.07828 9.17157 9.82843C9.92172 10.5786 10.9391 11 12 11C13.0609 11 14.0783 10.5786 14.8284 9.82843C15.5786 9.07828 16 8.06087 16 7C16 5.93913 15.5786 4.92172 14.8284 4.17157C14.0783 3.42143 13.0609 3 12 3C10.9391 3 9.92172 3.42143 9.17157 4.17157C8.42143 4.92172 8 5.93913 8 7Z"
				stroke="#17193E" stroke-width="1.5" stroke-linecap="round" stroke-linejoin="round" />
		</symbol>

		<symbol id="phone" viewBox="0 0 24 24">
			<path
				d="M5 4H9L11 9L8.5 10.5C9.57096 12.6715 11.3285 14.429 13.5 15.5L15 13L20 15V19C20 19.5304 19.7893 20.0391 19.4142 20.4142C19.0391 20.7893 18.5304 21 18 21C14.0993 20.763 10.4202 19.1065 7.65683 16.3432C4.8935 13.5798 3.23705 9.90074 3 6C3 5.46957 3.21071 4.96086 3.58579 4.58579C3.96086 4.21071 4.46957 4 5 4Z"
				stroke="#17193E" stroke-width="1.5" stroke-linecap="round" stroke-linejoin="round" />
		</symbol>

		<symbol id="photo" viewBox="0 0 24 24">
			<path
				d="M5 7H6C6.53043 7 7.03914 6.78929 7.41421 6.41421C7.78929 6.03914 8 5.53043 8 5C8 4.73478 8.10536 4.48043 8.29289 4.29289C8.48043 4.10536 8.73478 4 9 4H15C15.2652 4 15.5196 4.10536 15.7071 4.29289C15.8946 4.48043 16 4.73478 16 5C16 5.53043 16.2107 6.03914 16.5858 6.41421C16.9609 6.78929 17.4696 7 18 7H19C19.5304 7 20.0391 7.21071 20.4142 7.58579C20.7893 7.96086 21 8.46957 21 9V18C21 18.5304 20.7893 19.0391 20.4142 19.4142C20.0391 19.7893 19.5304 20 19 20H5C4.46957 20 3.96086 19.7893 3.58579 19.4142C3.21071 19.0391 3 18.5304 3 18V9C3 8.46957 3.21071 7.96086 3.58579 7.58579C3.96086 7.21071 4.46957 7 5 7Z"
				stroke="#17193E" stroke-width="1.5" stroke-linecap="round" stroke-linejoin="round" />
			<path
				d="M9 13C9 13.7956 9.31607 14.5587 9.87868 15.1213C10.4413 15.6839 11.2044 16 12 16C12.7956 16 13.5587 15.6839 14.1213 15.1213C14.6839 14.5587 15 13.7956 15 13C15 12.2044 14.6839 11.4413 14.1213 10.8787C13.5587 10.3161 12.7956 10 12 10C11.2044 10 10.4413 10.3161 9.87868 10.8787C9.31607 11.4413 9 12.2044 9 13Z"
				stroke="#17193E" stroke-width="1.5" stroke-linecap="round" stroke-linejoin="round" />
		</symbol>

		<symbol id="plus" viewBox="0 0 24 24">
			<path d="M12 5V19M5 12H19" stroke="black" stroke-width="1.5" stroke-linecap="round"
				stroke-linejoin="round" />
		</symbol>

		<symbol id="question" viewBox="0 0 24 24">
			<path
				d="M12 15.9995V16.0095M12 12.9995C12.4498 13.0009 12.8868 12.8506 13.2407 12.573C13.5945 12.2953 13.8444 11.9065 13.95 11.4693C14.0557 11.0322 14.0109 10.5722 13.8229 10.1636C13.6349 9.755 13.3147 9.4217 12.914 9.21752C12.5162 9.01373 12.0611 8.95054 11.6228 9.03824C11.1845 9.12593 10.7888 9.35935 10.5 9.70052M19.875 6.26959C20.575 6.66759 21.005 7.41259 21 8.21759V15.5016C21 16.3106 20.557 17.0566 19.842 17.4496L13.092 21.7196C12.7574 21.9033 12.3818 21.9996 12 21.9996C11.6182 21.9996 11.2426 21.9033 10.908 21.7196L4.158 17.4496C3.80817 17.2584 3.51612 16.9768 3.31241 16.6341C3.1087 16.2914 3.0008 15.9003 3 15.5016V8.21659C3 7.40759 3.443 6.66259 4.158 6.26959L10.908 2.28959C11.2525 2.09963 11.6396 2 12.033 2C12.4264 2 12.8135 2.09963 13.158 2.28959L19.908 6.26959H19.875Z"
				stroke="#17193E" stroke-width="1.5" stroke-linecap="round" stroke-linejoin="round" />
		</symbol>

		<symbol id="share" viewBox="0 0 24 24">
			<path
				d="M8.7002 10.7L15.3002 7.30005M8.7002 13.3L15.3002 16.7M3 12C3 12.7956 3.31607 13.5587 3.87868 14.1213C4.44129 14.6839 5.20435 15 6 15C6.79565 15 7.55871 14.6839 8.12132 14.1213C8.68393 13.5587 9 12.7956 9 12C9 11.2044 8.68393 10.4413 8.12132 9.87868C7.55871 9.31607 6.79565 9 6 9C5.20435 9 4.44129 9.31607 3.87868 9.87868C3.31607 10.4413 3 11.2044 3 12ZM15 6C15 6.79565 15.3161 7.55871 15.8787 8.12132C16.4413 8.68393 17.2044 9 18 9C18.7956 9 19.5587 8.68393 20.1213 8.12132C20.6839 7.55871 21 6.79565 21 6C21 5.20435 20.6839 4.44129 20.1213 3.87868C19.5587 3.31607 18.7956 3 18 3C17.2044 3 16.4413 3.31607 15.8787 3.87868C15.3161 4.44129 15 5.20435 15 6ZM15 18C15 18.7956 15.3161 19.5587 15.8787 20.1213C16.4413 20.6839 17.2044 21 18 21C18.7956 21 19.5587 20.6839 20.1213 20.1213C20.6839 19.5587 21 18.7956 21 18C21 17.2044 20.6839 16.4413 20.1213 15.8787C19.5587 15.3161 18.7956 15 18 15C17.2044 15 16.4413 15.3161 15.8787 15.8787C15.3161 16.4413 15 17.2044 15 18Z"
				stroke="#17193E" stroke-width="1.5" stroke-linecap="round" stroke-linejoin="round" />
		</symbol>

		<symbol id="trash" viewBox="0 0 24 24">
			<path
				d="M4 7H20M10 11V17M14 11V17M5 7L6 19C6 19.5304 6.21071 20.0391 6.58579 20.4142C6.96086 20.7893 7.46957 21 8 21H16C16.5304 21 17.0391 20.7893 17.4142 20.4142C17.7893 20.0391 18 19.5304 18 19L19 7M9 7V4C9 3.73478 9.10536 3.48043 9.29289 3.29289C9.48043 3.10536 9.73478 3 10 3H14C14.2652 3 14.5196 3.10536 14.7071 3.29289C14.8946 3.48043 15 3.73478 15 4V7"
				stroke="#17193E" stroke-width="1.5" stroke-linecap="round" stroke-linejoin="round" />
		</symbol>

		<symbol id="tv" viewBox="0 0 24 24">
			<path
				d="M16 3L12 7L8 3M3 9C3 8.46957 3.21071 7.96086 3.58579 7.58579C3.96086 7.21071 4.46957 7 5 7H19C19.5304 7 20.0391 7.21071 20.4142 7.58579C20.7893 7.96086 21 8.46957 21 9V18C21 18.5304 20.7893 19.0391 20.4142 19.4142C20.0391 19.7893 19.5304 20 19 20H5C4.46957 20 3.96086 19.7893 3.58579 19.4142C3.21071 19.0391 3 18.5304 3 18V9Z"
				stroke="#17193E" stroke-width="1.5" stroke-linecap="round" stroke-linejoin="round" />
		</symbol>

		<symbol id="youtube" viewBox="0 0 24 24">
			<path
				d="M2 8C2 6.93913 2.42143 5.92172 3.17157 5.17157C3.92172 4.42143 4.93913 4 6 4H18C19.0609 4 20.0783 4.42143 20.8284 5.17157C21.5786 5.92172 22 6.93913 22 8V16C22 17.0609 21.5786 18.0783 20.8284 18.8284C20.0783 19.5786 19.0609 20 18 20H6C4.93913 20 3.92172 19.5786 3.17157 18.8284C2.42143 18.0783 2 17.0609 2 16V8Z"
				stroke="#17193E" stroke-width="1.5" stroke-linecap="round" stroke-linejoin="round" />
			<path d="M10 9L15 12L10 15V9Z" stroke="#17193E" stroke-width="1.5" stroke-linecap="round"
				stroke-linejoin="round" />
		</symbol>

		<symbol id="zoom" viewBox="0 0 24 24">
			<path
				d="M21 21L15 15M3 10C3 10.9193 3.18106 11.8295 3.53284 12.6788C3.88463 13.5281 4.40024 14.2997 5.05025 14.9497C5.70026 15.5998 6.47194 16.1154 7.32122 16.4672C8.1705 16.8189 9.08075 17 10 17C10.9193 17 11.8295 16.8189 12.6788 16.4672C13.5281 16.1154 14.2997 15.5998 14.9497 14.9497C15.5998 14.2997 16.1154 13.5281 16.4672 12.6788C16.8189 11.8295 17 10.9193 17 10C17 9.08075 16.8189 8.1705 16.4672 7.32122C16.1154 6.47194 15.5998 5.70026 14.9497 5.05025C14.2997 4.40024 13.5281 3.88463 12.6788 3.53284C11.8295 3.18106 10.9193 3 10 3C9.08075 3 8.1705 3.18106 7.32122 3.53284C6.47194 3.88463 5.70026 4.40024 5.05025 5.05025C4.40024 5.70026 3.88463 6.47194 3.53284 7.32122C3.18106 8.1705 3 9.08075 3 10Z"
				stroke="#17193E" stroke-width="1.5" stroke-linecap="round" stroke-linejoin="round" />
		</symbol>
	</defs>
</svg>